<svg width="48" height="40" viewBox="0 0 48 40" fill="none" xmlns="http://www.w3.org/2000/svg">
<path d="M28.0771 17.3913C21.3084 18.8954 19.729 23.5358 18.1647 27.4241L19.5861 27.9204L20.3006 26.1907C20.6616 26.3185 21.0376 26.4163 21.3084 26.4163C29.5813 26.4163 31.8376 13.6309 31.8376 13.6309C31.0855 15.135 25.8209 15.323 22.0605 16.0751C18.3001 16.8272 16.7959 20.0236 16.7959 21.5277C16.7959 23.0319 18.112 24.348 18.112 24.348C20.5563 17.3913 28.0771 17.3913 28.0771 17.3913Z" fill="#0FA958"/>
<path d="M42.8144 19.9518C42.5671 19.7045 42.1661 19.7045 41.9188 19.9518L37.8883 23.9823C37.6409 24.2297 37.6409 24.6307 37.8883 24.878C38.1356 25.1253 38.5366 25.1253 38.7839 24.878L42.3666 21.2953L45.9493 24.878C46.1966 25.1253 46.5976 25.1253 46.8449 24.878C47.0923 24.6307 47.0923 24.2297 46.8449 23.9823L42.8144 19.9518ZM37.0799 33.1629L36.632 32.7151L37.0799 33.1629ZM24.3166 38.4497V39.083V38.4497ZM11.5533 33.1629L12.0012 32.7151H12.0012L11.5533 33.1629ZM41.7333 20.3997C41.7333 25.0188 39.8983 29.4488 36.632 32.7151L37.5277 33.6108C41.0315 30.107 42.9999 25.3548 42.9999 20.3997H41.7333ZM36.632 32.7151C33.3658 35.9814 28.9358 37.8163 24.3166 37.8163V39.083C29.2717 39.083 34.0239 37.1146 37.5277 33.6108L36.632 32.7151ZM24.3166 37.8163C19.6974 37.8163 15.2674 35.9814 12.0012 32.7151L11.1055 33.6108C14.6093 37.1146 19.3615 39.083 24.3166 39.083V37.8163ZM12.0012 32.7151C8.7349 29.4488 6.89993 25.0188 6.89993 20.3997H5.63327C5.63327 25.3548 7.60169 30.107 11.1055 33.6108L12.0012 32.7151Z" fill="#02B154"/>
<path d="M5.81887 19.7645C6.0662 20.0118 6.4672 20.0118 6.71453 19.7645L10.745 15.734C10.9924 15.4866 10.9924 15.0856 10.745 14.8383C10.4977 14.591 10.0967 14.591 9.84938 14.8383L6.2667 18.421L2.68402 14.8383C2.4367 14.591 2.03569 14.591 1.78836 14.8383C1.54103 15.0856 1.54103 15.4866 1.78836 15.734L5.81887 19.7645ZM11.5534 6.55337L12.0013 7.00121L11.5534 6.55337ZM24.3167 1.26665V0.633318V1.26665ZM37.08 6.55337L36.6321 7.00121H36.6321L37.08 6.55337ZM6.90004 19.3167C6.90004 14.6975 8.735 10.2675 12.0013 7.00121L11.1056 6.10554C7.60178 9.60934 5.63337 14.3615 5.63337 19.3167H6.90004ZM12.0013 7.00121C15.2675 3.73495 19.6975 1.89999 24.3167 1.89998V0.633318C19.3616 0.63332 14.6094 2.60174 11.1056 6.10554L12.0013 7.00121ZM24.3167 1.89998C28.9359 1.89998 33.3659 3.73495 36.6321 7.00121L37.5278 6.10554C34.024 2.60173 29.2718 0.633318 24.3167 0.633318V1.89998ZM36.6321 7.00121C39.8984 10.2675 41.7334 14.6975 41.7334 19.3166H43C43 14.3615 41.0316 9.60934 37.5278 6.10554L36.6321 7.00121Z" fill="#02B154"/>
</svg>
