<svg width="155" height="40" viewBox="0 0 155 40" fill="none" xmlns="http://www.w3.org/2000/svg">
<path d="M28.0771 17.3913C21.3084 18.8954 19.729 23.5358 18.1647 27.4241L19.5861 27.9204L20.3006 26.1907C20.6616 26.3185 21.0376 26.4163 21.3084 26.4163C29.5813 26.4163 31.8376 13.6309 31.8376 13.6309C31.0855 15.135 25.8209 15.323 22.0605 16.0751C18.3001 16.8272 16.7959 20.0236 16.7959 21.5277C16.7959 23.0319 18.112 24.348 18.112 24.348C20.5563 17.3913 28.0771 17.3913 28.0771 17.3913Z" fill="#0FA958"/>
<path d="M42.8144 19.9518C42.5671 19.7045 42.1661 19.7045 41.9188 19.9518L37.8883 23.9823C37.6409 24.2297 37.6409 24.6307 37.8883 24.878C38.1356 25.1253 38.5366 25.1253 38.7839 24.878L42.3666 21.2953L45.9493 24.878C46.1966 25.1253 46.5976 25.1253 46.8449 24.878C47.0923 24.6307 47.0923 24.2297 46.8449 23.9823L42.8144 19.9518ZM37.0799 33.1629L36.632 32.7151L36.632 32.7151L37.0799 33.1629ZM24.3166 38.4497L24.3166 39.083L24.3166 39.083L24.3166 38.4497ZM11.5533 33.1629L12.0012 32.7151L12.0012 32.7151L11.5533 33.1629ZM41.7333 20.3997C41.7333 25.0188 39.8983 29.4488 36.632 32.7151L37.5277 33.6108C41.0315 30.107 42.9999 25.3548 42.9999 20.3997H41.7333ZM36.632 32.7151C33.3658 35.9814 28.9358 37.8163 24.3166 37.8163L24.3166 39.083C29.2717 39.083 34.0239 37.1146 37.5277 33.6108L36.632 32.7151ZM24.3166 37.8163C19.6974 37.8163 15.2674 35.9814 12.0012 32.7151L11.1055 33.6108C14.6093 37.1146 19.3615 39.083 24.3166 39.083V37.8163ZM12.0012 32.7151C8.7349 29.4488 6.89993 25.0188 6.89993 20.3997H5.63327C5.63327 25.3548 7.60169 30.107 11.1055 33.6108L12.0012 32.7151Z" fill="#02B154"/>
<path d="M5.81887 19.7645C6.0662 20.0118 6.4672 20.0118 6.71454 19.7645L10.745 15.734C10.9924 15.4866 10.9924 15.0856 10.745 14.8383C10.4977 14.591 10.0967 14.591 9.84938 14.8383L6.2667 18.421L2.68403 14.8383C2.43669 14.591 2.03569 14.591 1.78836 14.8383C1.54103 15.0856 1.54103 15.4866 1.78836 15.734L5.81887 19.7645ZM11.5534 6.55337L12.0013 7.00121L12.0013 7.00121L11.5534 6.55337ZM24.3167 1.26665L24.3167 0.633318L24.3167 0.633318L24.3167 1.26665ZM37.08 6.55337L36.6321 7.00121L36.6321 7.00121L37.08 6.55337ZM6.90003 19.3167C6.90003 14.6975 8.735 10.2675 12.0013 7.00121L11.1056 6.10554C7.60178 9.60934 5.63337 14.3615 5.63337 19.3167H6.90003ZM12.0013 7.00121C15.2675 3.73495 19.6975 1.89999 24.3167 1.89998L24.3167 0.633318C19.3616 0.63332 14.6094 2.60174 11.1056 6.10554L12.0013 7.00121ZM24.3167 1.89998C28.9359 1.89998 33.3659 3.73495 36.6321 7.00121L37.5278 6.10554C34.024 2.60173 29.2718 0.633318 24.3167 0.633318V1.89998ZM36.6321 7.00121C39.8984 10.2675 41.7334 14.6975 41.7334 19.3166H43C43 14.3615 41.0316 9.60934 37.5278 6.10554L36.6321 7.00121Z" fill="#02B154"/>
<path d="M61.1367 15.3132C62.293 15.3132 63.2852 15.5515 64.1133 16.0281C64.9414 16.5046 65.5781 17.1804 66.0234 18.0554C66.4688 18.9304 66.6914 19.9773 66.6914 21.196V22.6726H58.0312C58.0625 23.9304 58.3984 24.8992 59.0391 25.5789C59.6875 26.2585 60.5938 26.5984 61.7578 26.5984C62.5859 26.5984 63.3281 26.5203 63.9844 26.364C64.6484 26.2 65.332 25.9617 66.0352 25.6492V27.8875C65.3867 28.1921 64.7266 28.4148 64.0547 28.5554C63.3828 28.696 62.5781 28.7664 61.6406 28.7664C60.3672 28.7664 59.2461 28.5203 58.2773 28.0281C57.3164 27.5281 56.5625 26.7859 56.0156 25.8015C55.4766 24.8171 55.207 23.5945 55.207 22.1335C55.207 20.6804 55.4531 19.446 55.9453 18.4304C56.4375 17.4148 57.1289 16.6414 58.0195 16.1101C58.9102 15.5789 59.9492 15.3132 61.1367 15.3132ZM61.1367 17.3875C60.2695 17.3875 59.5664 17.6687 59.0273 18.2312C58.4961 18.7937 58.1836 19.6179 58.0898 20.7039H63.9961C63.9883 20.0554 63.8789 19.4812 63.668 18.9812C63.4648 18.4812 63.1523 18.0906 62.7305 17.8093C62.3164 17.5281 61.7852 17.3875 61.1367 17.3875ZM75.0234 28.7664C73.7969 28.7664 72.7344 28.5281 71.8359 28.0515C70.9375 27.575 70.2461 26.8445 69.7617 25.8601C69.2773 24.8757 69.0352 23.6257 69.0352 22.1101C69.0352 20.532 69.3008 19.2429 69.832 18.2429C70.3633 17.2429 71.0977 16.5046 72.0352 16.0281C72.9805 15.5515 74.0625 15.3132 75.2812 15.3132C76.0547 15.3132 76.7539 15.3914 77.3789 15.5476C78.0117 15.696 78.5469 15.8796 78.9844 16.0984L78.1641 18.3015C77.6875 18.1062 77.1992 17.9421 76.6992 17.8093C76.1992 17.6765 75.7188 17.6101 75.2578 17.6101C74.5 17.6101 73.8672 17.7781 73.3594 18.114C72.8594 18.45 72.4844 18.95 72.2344 19.614C71.9922 20.2781 71.8711 21.1023 71.8711 22.0867C71.8711 23.0398 71.9961 23.8445 72.2461 24.5007C72.4961 25.1492 72.8672 25.6414 73.3594 25.9773C73.8516 26.3054 74.457 26.4695 75.1758 26.4695C75.8867 26.4695 76.5234 26.3835 77.0859 26.2117C77.6484 26.0398 78.1797 25.8171 78.6797 25.5437V27.9343C78.1875 28.2156 77.6602 28.4226 77.0977 28.5554C76.5352 28.696 75.8438 28.7664 75.0234 28.7664ZM93.2109 22.0164C93.2109 23.0945 93.0703 24.0515 92.7891 24.8875C92.5078 25.7234 92.0977 26.4304 91.5586 27.0085C91.0195 27.5789 90.3711 28.0164 89.6133 28.321C88.8555 28.6179 88 28.7664 87.0469 28.7664C86.1562 28.7664 85.3398 28.6179 84.5977 28.321C83.8555 28.0164 83.2109 27.5789 82.6641 27.0085C82.125 26.4304 81.707 25.7234 81.4102 24.8875C81.1133 24.0515 80.9648 23.0945 80.9648 22.0164C80.9648 20.5867 81.2109 19.3757 81.7031 18.3835C82.2031 17.3835 82.9141 16.6218 83.8359 16.0984C84.7578 15.575 85.8555 15.3132 87.1289 15.3132C88.3242 15.3132 89.3789 15.575 90.293 16.0984C91.207 16.6218 91.9219 17.3835 92.4375 18.3835C92.9531 19.3835 93.2109 20.5945 93.2109 22.0164ZM83.8008 22.0164C83.8008 22.9617 83.9141 23.7703 84.1406 24.4421C84.375 25.114 84.7344 25.6296 85.2188 25.989C85.7031 26.3406 86.3281 26.5164 87.0938 26.5164C87.8594 26.5164 88.4844 26.3406 88.9688 25.989C89.4531 25.6296 89.8086 25.114 90.0352 24.4421C90.2617 23.7703 90.375 22.9617 90.375 22.0164C90.375 21.071 90.2617 20.2703 90.0352 19.614C89.8086 18.95 89.4531 18.446 88.9688 18.1023C88.4844 17.7507 87.8555 17.575 87.082 17.575C85.9414 17.575 85.1094 17.9578 84.5859 18.7234C84.0625 19.489 83.8008 20.5867 83.8008 22.0164ZM107.777 15.3132C108.934 15.3132 109.926 15.5515 110.754 16.0281C111.582 16.5046 112.219 17.1804 112.664 18.0554C113.109 18.9304 113.332 19.9773 113.332 21.196V22.6726H104.672C104.703 23.9304 105.039 24.8992 105.68 25.5789C106.328 26.2585 107.234 26.5984 108.398 26.5984C109.227 26.5984 109.969 26.5203 110.625 26.364C111.289 26.2 111.973 25.9617 112.676 25.6492V27.8875C112.027 28.1921 111.367 28.4148 110.695 28.5554C110.023 28.696 109.219 28.7664 108.281 28.7664C107.008 28.7664 105.887 28.5203 104.918 28.0281C103.957 27.5281 103.203 26.7859 102.656 25.8015C102.117 24.8171 101.848 23.5945 101.848 22.1335C101.848 20.6804 102.094 19.446 102.586 18.4304C103.078 17.4148 103.77 16.6414 104.66 16.1101C105.551 15.5789 106.59 15.3132 107.777 15.3132ZM107.777 17.3875C106.91 17.3875 106.207 17.6687 105.668 18.2312C105.137 18.7937 104.824 19.6179 104.73 20.7039H110.637C110.629 20.0554 110.52 19.4812 110.309 18.9812C110.105 18.4812 109.793 18.0906 109.371 17.8093C108.957 17.5281 108.426 17.3875 107.777 17.3875ZM121.523 15.3132C123.164 15.3132 124.402 15.6765 125.238 16.4031C126.082 17.1296 126.504 18.2625 126.504 19.8015V28.532H124.547L124.02 26.6921H123.926C123.559 27.1609 123.18 27.5476 122.789 27.8523C122.398 28.157 121.945 28.3835 121.43 28.532C120.922 28.6882 120.301 28.7664 119.566 28.7664C118.793 28.7664 118.102 28.6257 117.492 28.3445C116.883 28.0554 116.402 27.6179 116.051 27.032C115.699 26.446 115.523 25.7039 115.523 24.8054C115.523 23.4695 116.02 22.4656 117.012 21.7937C118.012 21.1218 119.52 20.7507 121.535 20.6804L123.785 20.5984V19.9187C123.785 19.0203 123.574 18.3796 123.152 17.9968C122.738 17.614 122.152 17.4226 121.395 17.4226C120.746 17.4226 120.117 17.5164 119.508 17.7039C118.898 17.8914 118.305 18.1218 117.727 18.3953L116.836 16.45C117.469 16.114 118.188 15.8406 118.992 15.6296C119.805 15.4187 120.648 15.3132 121.523 15.3132ZM123.773 22.3328L122.098 22.3914C120.723 22.4382 119.758 22.6726 119.203 23.0945C118.648 23.5164 118.371 24.0945 118.371 24.8289C118.371 25.4695 118.562 25.9382 118.945 26.2351C119.328 26.5242 119.832 26.6687 120.457 26.6687C121.41 26.6687 122.199 26.3992 122.824 25.8601C123.457 25.3132 123.773 24.5125 123.773 23.4578V22.3328ZM136.934 15.3132C137.152 15.3132 137.391 15.325 137.648 15.3484C137.906 15.3718 138.129 15.4031 138.316 15.4421L138.059 18.0203C137.895 17.9734 137.691 17.9382 137.449 17.9148C137.215 17.8914 137.004 17.8796 136.816 17.8796C136.324 17.8796 135.855 17.9617 135.41 18.1257C134.965 18.282 134.57 18.5242 134.227 18.8523C133.883 19.1726 133.613 19.575 133.418 20.0593C133.223 20.5437 133.125 21.1062 133.125 21.7468V28.532H130.359V15.5593H132.516L132.891 17.8445H133.02C133.277 17.3835 133.598 16.9617 133.98 16.5789C134.363 16.196 134.801 15.8914 135.293 15.6648C135.793 15.4304 136.34 15.3132 136.934 15.3132ZM147.48 15.3132C148.941 15.3132 150.078 15.6921 150.891 16.45C151.711 17.2 152.121 18.407 152.121 20.071V28.532H149.367V20.5867C149.367 19.5789 149.16 18.825 148.746 18.325C148.332 17.8171 147.691 17.5632 146.824 17.5632C145.566 17.5632 144.691 17.95 144.199 18.7234C143.715 19.4968 143.473 20.6179 143.473 22.0867V28.532H140.719V15.5593H142.863L143.25 17.3171H143.402C143.684 16.864 144.031 16.4929 144.445 16.2039C144.867 15.907 145.336 15.6843 145.852 15.5359C146.375 15.3875 146.918 15.3132 147.48 15.3132Z" fill="#02B154"/>
</svg>
